<svg width="596" height="162" viewBox="0 0 596 162" fill="none" xmlns="http://www.w3.org/2000/svg">
<path d="M39.9844 23.6719L26.625 55.2344H22.4844L4.90625 14.2969L0.921875 13.0469L1.15625 9.14062H20.7656L21 13.0469L17.0938 14.2969L29.4375 44.6875H25.6875L36.625 16.7969L39.9844 23.6719ZM51.4688 55.2344L33.6562 14.2969L29.75 13.0469L29.9844 9.14062H50.2188L50.4531 13.0469L45.5312 14.2969L58.1094 44.6875H54.8281L66.2344 14.2969L60.9219 13.0469L61.1562 9.14062H77.0938L77.3281 13.0469L73.3438 14.2969L55.6094 55.2344H51.4688ZM94.2812 55.625C90.6354 55.625 87.4323 54.8958 84.6719 53.4375C81.9115 51.9271 79.75 49.8698 78.1875 47.2656C76.625 44.6094 75.8438 41.5885 75.8438 38.2031C75.8438 34.349 76.7292 31.0677 78.5 28.3594C80.2708 25.651 82.5885 23.5938 85.4531 22.1875C88.3177 20.7812 91.3646 20.0781 94.5938 20.0781C98.0312 20.0781 101.052 20.8073 103.656 22.2656C106.312 23.724 108.37 25.7812 109.828 28.4375C111.339 31.0417 112.094 34.0365 112.094 37.4219C112.094 40.8594 111.286 43.9583 109.672 46.7188C108.109 49.4271 105.974 51.5885 103.266 53.2031C100.557 54.8177 97.5625 55.625 94.2812 55.625ZM95.0625 50.625C96.3646 50.625 97.4583 50.2083 98.3438 49.375C99.2812 48.5417 99.9844 47.3177 100.453 45.7031C100.974 44.0885 101.234 42.1615 101.234 39.9219C101.234 35.4427 100.505 31.7969 99.0469 28.9844C97.6406 26.1719 95.7396 24.7656 93.3438 24.7656C91.3646 24.7656 89.8021 25.7812 88.6562 27.8125C87.5104 29.7917 86.9375 32.5 86.9375 35.9375C86.9375 38.6979 87.276 41.1979 87.9531 43.4375C88.6823 45.6771 89.6458 47.4479 90.8438 48.75C92.0938 50 93.5 50.625 95.0625 50.625ZM116.391 55L116.156 51.4062L121 50.0781C121.052 49.8698 121.104 49.401 121.156 48.6719C121.208 47.8906 121.26 46.9531 121.312 45.8594C121.365 44.7135 121.391 43.5156 121.391 42.2656L121.469 36.4062C121.469 34.8438 121.417 33.4635 121.312 32.2656C121.208 31.0156 121.026 29.7135 120.766 28.3594L115.766 27.2656V23.75L129.281 20.2344L131.312 21.5625L131 27.7344L131.234 27.8125C132.745 24.8958 134.255 22.9167 135.766 21.875C137.328 20.8333 138.917 20.3125 140.531 20.3125C141.938 20.3125 143.161 20.7031 144.203 21.4844C145.297 22.2656 145.844 23.4896 145.844 25.1562C145.844 26.8229 145.271 28.125 144.125 29.0625C142.979 30 141.651 30.4688 140.141 30.4688C138.891 30.4688 137.771 30.2604 136.781 29.8438C135.792 29.375 134.698 28.5677 133.5 27.4219L135.688 27.6562C134.906 28.2292 134.151 28.9583 133.422 29.8438C132.693 30.7292 132.068 31.7448 131.547 32.8906L131.625 39.0625C131.677 40.9896 131.703 42.7344 131.703 44.2969C131.755 45.8073 131.807 47.0833 131.859 48.125C131.911 49.1146 131.964 49.7656 132.016 50.0781L138.812 51.25L138.578 55H116.391ZM147.797 55L147.562 51.4062L152.016 50.0781C152.12 49.401 152.198 48.3333 152.25 46.875C152.302 45.4167 152.354 43.8021 152.406 42.0312C152.458 40.2083 152.484 38.4635 152.484 36.7969V26.7969C152.484 24.9219 152.458 23.099 152.406 21.3281C152.406 19.5052 152.38 17.7865 152.328 16.1719C152.328 14.5052 152.302 13.0208 152.25 11.7188C152.198 10.4167 152.146 9.34896 152.094 8.51562L146.312 7.73438L146.156 4.375L160.922 0.546875L163.109 1.875C163.005 3.33333 162.901 4.79167 162.797 6.25C162.745 7.70833 162.693 9.29688 162.641 11.0156C162.641 12.6823 162.615 14.6354 162.562 16.875C162.562 19.0625 162.562 21.6927 162.562 24.7656L162.484 42.4219C162.484 43.5677 162.51 44.6875 162.562 45.7812C162.615 46.8229 162.641 47.7344 162.641 48.5156C162.693 49.2448 162.745 49.7656 162.797 50.0781L167.641 51.4062L167.406 55H147.797ZM189.75 55H176.625C175.844 53.9062 175.115 52.9688 174.438 52.1875C173.812 51.3542 173.161 50.5469 172.484 49.7656L163.422 39.5312H161.469L161.547 36.6406L163.891 36.0938L175.375 25.2344L170.219 24.375L170.453 20.7031H187.797L188.031 24.375L182.875 25.3125L169.906 36.0938L170.766 32.5781L182.719 46.1719C183.708 47.3177 184.568 48.2812 185.297 49.0625C186.078 49.8438 186.651 50.4167 187.016 50.7812L189.984 51.4062L189.75 55ZM200.922 55.7812C198.891 55.7812 197.146 55.1042 195.688 53.75C194.281 52.3438 193.578 50.651 193.578 48.6719C193.578 47.3177 193.891 46.0938 194.516 45C195.193 43.9062 196.078 43.0469 197.172 42.4219C198.318 41.7448 199.542 41.4062 200.844 41.4062C202.927 41.4062 204.672 42.1094 206.078 43.5156C207.536 44.9219 208.266 46.6406 208.266 48.6719C208.266 50.651 207.536 52.3438 206.078 53.75C204.672 55.1042 202.953 55.7812 200.922 55.7812ZM245.688 55.7031C243.5 55.7031 241.078 55.3906 238.422 54.7656C235.818 54.1406 233.578 53.3073 231.703 52.2656L231.312 40.7031L236.312 40.3906L238.969 48.4375C240.01 49.1146 241.234 49.6615 242.641 50.0781C244.099 50.4427 245.479 50.625 246.781 50.625C249.125 50.625 250.896 50.1302 252.094 49.1406C253.344 48.151 253.969 46.8229 253.969 45.1562C253.969 43.3333 253.422 41.875 252.328 40.7812C251.286 39.6875 249.906 38.75 248.188 37.9688C246.469 37.1875 244.646 36.4323 242.719 35.7031C240.792 34.9219 238.969 34.0104 237.25 32.9688C235.531 31.875 234.125 30.4948 233.031 28.8281C231.99 27.1094 231.469 24.9479 231.469 22.3438C231.469 19.5312 232.25 17.0833 233.812 15C235.427 12.8646 237.667 11.224 240.531 10.0781C243.448 8.88021 246.807 8.28125 250.609 8.28125C251.807 8.28125 253.083 8.35938 254.438 8.51562C255.844 8.67188 257.198 8.93229 258.5 9.29688C259.802 9.60938 260.948 9.97396 261.938 10.3906L262.797 21.7969L257.875 22.1094L255.375 14.4531C253.76 13.6198 251.911 13.2031 249.828 13.2031C247.693 13.2031 245.922 13.75 244.516 14.8438C243.161 15.8854 242.484 17.3698 242.484 19.2969C242.484 21.0156 243.031 22.4479 244.125 23.5938C245.219 24.6875 246.625 25.651 248.344 26.4844C250.062 27.2656 251.885 28.0469 253.812 28.8281C255.792 29.6094 257.641 30.5469 259.359 31.6406C261.13 32.6823 262.562 34.0104 263.656 35.625C264.75 37.2396 265.297 39.2969 265.297 41.7969C265.297 44.4531 264.464 46.849 262.797 48.9844C261.182 51.0677 258.891 52.7083 255.922 53.9062C253.005 55.1042 249.594 55.7031 245.688 55.7031ZM268.578 55L268.344 51.3281L273.578 50.0781C273.63 49.8698 273.682 49.401 273.734 48.6719C273.786 47.8906 273.839 46.9531 273.891 45.8594C273.943 44.7656 273.969 43.5677 273.969 42.2656L274.047 36.4062C274.047 34.8438 273.995 33.4375 273.891 32.1875C273.786 30.9375 273.604 29.6615 273.344 28.3594L268.109 27.2656V23.75L282.484 20.2344L284.594 21.5625C284.438 23.2292 284.307 24.9219 284.203 26.6406C284.151 28.3073 284.125 30.2083 284.125 32.3438V42.1875C284.125 43.9062 284.151 45.5469 284.203 47.1094C284.307 48.6719 284.411 49.6615 284.516 50.0781L289.75 51.3281L289.516 55H268.578ZM279.125 13.8281C277.042 13.8281 275.401 13.2031 274.203 11.9531C273.005 10.651 272.406 9.16667 272.406 7.5C272.406 5.83333 273.005 4.375 274.203 3.125C275.401 1.82292 277.042 1.17188 279.125 1.17188C281.208 1.17188 282.823 1.82292 283.969 3.125C285.115 4.375 285.688 5.83333 285.688 7.5C285.688 9.16667 285.115 10.651 283.969 11.9531C282.823 13.2031 281.208 13.8281 279.125 13.8281ZM292.172 55L291.938 51.4062L296.781 50.0781C296.833 49.8698 296.885 49.401 296.938 48.6719C296.99 47.8906 297.042 46.9531 297.094 45.8594C297.146 44.7656 297.172 43.5677 297.172 42.2656L297.25 36.4062C297.25 35.3646 297.224 34.4271 297.172 33.5938C297.12 32.7083 297.042 31.849 296.938 31.0156C296.833 30.1302 296.703 29.2448 296.547 28.3594L291.547 27.2656V23.75L305.297 20.2344L307.406 21.5625L306.938 26.0938L307.172 26.1719C308.839 24.0365 310.583 22.5 312.406 21.5625C314.229 20.5729 316.13 20.0781 318.109 20.0781C320.141 20.0781 322.016 20.599 323.734 21.6406C325.505 22.6302 326.938 24.1667 328.031 26.25C329.125 28.2812 329.672 30.9115 329.672 34.1406L329.828 42.1875C329.828 43.9062 329.854 45.5469 329.906 47.1094C329.958 48.6719 330.062 49.6615 330.219 50.0781L334.438 51.4062L334.203 55H315.688L315.453 51.4062L319.438 50.0781C319.542 49.6094 319.62 48.9583 319.672 48.125C319.724 47.2396 319.75 46.276 319.75 45.2344C319.802 44.1927 319.828 43.2031 319.828 42.2656L319.75 34.9219C319.75 33.0469 319.464 31.5625 318.891 30.4688C318.37 29.3229 317.641 28.5156 316.703 28.0469C315.818 27.5781 314.776 27.3438 313.578 27.3438C312.432 27.3438 311.286 27.6562 310.141 28.2812C308.995 28.8542 308.031 29.6615 307.25 30.7031V42.1875C307.25 43.9062 307.276 45.5469 307.328 47.1094C307.432 48.6719 307.536 49.6615 307.641 50.0781L311.938 51.4062L311.703 55H292.172ZM338.031 55L337.797 51.4062L341.859 50.0781C341.964 49.6094 342.042 48.9583 342.094 48.125C342.146 47.2396 342.172 46.276 342.172 45.2344C342.224 44.1927 342.25 43.2031 342.25 42.2656L342.094 35.625C342.094 33.5938 341.807 31.9792 341.234 30.7812C340.661 29.5833 339.88 28.724 338.891 28.2031C337.901 27.6302 336.807 27.3438 335.609 27.3438C334.307 27.3438 333.057 27.6302 331.859 28.2031C330.714 28.724 329.75 29.5312 328.969 30.625L326.703 27.6562C328.578 25.1562 330.557 23.2812 332.641 22.0312C334.776 20.7292 337.068 20.0781 339.516 20.0781C341.964 20.0781 344.125 20.651 346 21.7969C347.927 22.8906 349.411 24.4792 350.453 26.5625C351.495 28.6458 352.016 31.1458 352.016 34.0625L352.172 42.1875C352.172 43.9062 352.198 45.5469 352.25 47.1094C352.354 48.6719 352.458 49.6615 352.562 50.0781L357.406 51.4062L357.172 55H338.031ZM359.594 72.1875L359.359 68.5938L364.203 67.2656C364.203 66.9531 364.229 66.3021 364.281 65.3125C364.333 64.375 364.385 63.1771 364.438 61.7188C364.49 60.3125 364.542 58.75 364.594 57.0312C364.646 55.3646 364.672 53.6458 364.672 51.875L364.828 36.3281C364.828 34.8177 364.776 33.4375 364.672 32.1875C364.568 30.9375 364.385 29.6615 364.125 28.3594L359.125 27.2656V23.75L372.875 20.2344L374.984 21.5625L374.438 26.3281L374.672 26.4062C375.87 24.4792 377.406 22.9427 379.281 21.7969C381.156 20.651 383.135 20.0781 385.219 20.0781C387.719 20.0781 390.062 20.7292 392.25 22.0312C394.438 23.2812 396.208 25.1302 397.562 27.5781C398.917 30.026 399.594 32.9688 399.594 36.4062C399.594 39.8438 398.786 43.0208 397.172 45.9375C395.609 48.8021 393.396 51.1198 390.531 52.8906C387.667 54.6615 384.255 55.5469 380.297 55.5469C379.464 55.5469 378.552 55.4688 377.562 55.3125C376.625 55.1562 375.688 54.9219 374.75 54.6094V59.5312C374.75 61.25 374.776 62.8646 374.828 64.375C374.932 65.8854 375.036 66.849 375.141 67.2656L381.547 68.5156L381.312 72.1875H359.594ZM380.453 50C382.068 50 383.474 49.6354 384.672 48.9062C385.922 48.125 386.911 46.901 387.641 45.2344C388.37 43.5677 388.734 41.4323 388.734 38.8281C388.734 36.1198 388.344 33.9583 387.562 32.3438C386.833 30.6771 385.844 29.4531 384.594 28.6719C383.396 27.8906 382.094 27.5 380.688 27.5C379.594 27.5 378.526 27.7865 377.484 28.3594C376.443 28.8802 375.531 29.6094 374.75 30.5469V48.3594C375.531 48.8802 376.417 49.2969 377.406 49.6094C378.396 49.8698 379.411 50 380.453 50ZM403.656 55L403.422 51.3281L408.5 50.0781C408.552 49.5052 408.604 48.5156 408.656 47.1094C408.76 45.651 408.839 43.9844 408.891 42.1094C408.943 40.2344 408.969 38.4115 408.969 36.6406V26.7969C408.969 24.974 408.943 23.1771 408.891 21.4062C408.891 19.5833 408.865 17.8646 408.812 16.25C408.812 14.5833 408.786 13.099 408.734 11.7969C408.682 10.4427 408.604 9.34896 408.5 8.51562L402.719 7.73438L402.562 4.375L417.484 0.546875L419.672 1.875C419.568 4.0625 419.464 6.19792 419.359 8.28125C419.307 10.3125 419.281 12.6302 419.281 15.2344C419.281 17.8385 419.255 21.0156 419.203 24.7656L419.125 36.25C419.125 39.8958 419.151 42.9948 419.203 45.5469C419.307 48.0469 419.411 49.5573 419.516 50.0781L424.594 51.3281L424.438 55H403.656ZM426.859 55L426.625 51.3281L431.859 50.0781C431.911 49.8698 431.964 49.401 432.016 48.6719C432.068 47.8906 432.12 46.9531 432.172 45.8594C432.224 44.7656 432.25 43.5677 432.25 42.2656L432.328 36.4062C432.328 34.8438 432.276 33.4375 432.172 32.1875C432.068 30.9375 431.885 29.6615 431.625 28.3594L426.391 27.2656V23.75L440.766 20.2344L442.875 21.5625C442.719 23.2292 442.589 24.9219 442.484 26.6406C442.432 28.3073 442.406 30.2083 442.406 32.3438V42.1875C442.406 43.9062 442.432 45.5469 442.484 47.1094C442.589 48.6719 442.693 49.6615 442.797 50.0781L448.031 51.3281L447.797 55H426.859ZM437.406 13.8281C435.323 13.8281 433.682 13.2031 432.484 11.9531C431.286 10.651 430.688 9.16667 430.688 7.5C430.688 5.83333 431.286 4.375 432.484 3.125C433.682 1.82292 435.323 1.17188 437.406 1.17188C439.49 1.17188 441.104 1.82292 442.25 3.125C443.396 4.375 443.969 5.83333 443.969 7.5C443.969 9.16667 443.396 10.651 442.25 11.9531C441.104 13.2031 439.49 13.8281 437.406 13.8281ZM450.609 55L450.375 51.4062L455.219 50.0781C455.271 49.9219 455.297 49.4271 455.297 48.5938C455.349 47.7604 455.375 46.5625 455.375 45C455.427 43.3854 455.453 41.4062 455.453 39.0625V18.9844C455.453 15.4948 456.286 12.3698 457.953 9.60938C459.672 6.79688 462.12 4.58333 465.297 2.96875C468.474 1.30208 472.328 0.46875 476.859 0.46875C481.13 0.46875 484.542 1.19792 487.094 2.65625C489.646 4.0625 490.922 5.83333 490.922 7.96875C490.922 9.32292 490.505 10.3646 489.672 11.0938C488.839 11.7708 487.849 12.1094 486.703 12.1094C485.609 12.1094 484.646 11.9271 483.812 11.5625C483.031 11.1979 482.146 10.5469 481.156 9.60938L472.953 2.5L477.875 5C475.375 4.58333 473.188 4.81771 471.312 5.70312C469.49 6.53646 468.083 7.91667 467.094 9.84375C466.104 11.7708 465.609 14.2188 465.609 17.1875V20.7812V36.7969C465.609 39.6615 465.635 41.9792 465.688 43.75C465.74 45.5208 465.792 46.901 465.844 47.8906C465.948 48.8281 466 49.5573 466 50.0781L470.922 51.4062L470.688 55H450.609ZM473.812 55L473.578 51.3281L478.5 50.0781C478.604 49.5573 478.682 48.8281 478.734 47.8906C478.786 46.9531 478.812 45.9635 478.812 44.9219C478.865 43.8802 478.891 42.9948 478.891 42.2656L478.969 33.9062C479.021 32.2396 478.969 30.8073 478.812 29.6094C478.708 28.3594 478.552 27.0573 478.344 25.7031H449.75V22.1094L455.453 20.5469L460.141 20.7812H482.562C483.708 20.7812 484.854 20.7552 486 20.7031C487.198 20.651 488.37 20.5469 489.516 20.3906C489.411 22.4219 489.307 24.3229 489.203 26.0938C489.151 27.8646 489.125 29.9219 489.125 32.2656V42.1875C489.125 43.1771 489.125 44.2188 489.125 45.3125C489.177 46.4062 489.229 47.3958 489.281 48.2812C489.385 49.1667 489.464 49.7656 489.516 50.0781L494.672 51.3281L494.438 55H473.812ZM515.766 55.625C512.38 55.625 509.359 54.8698 506.703 53.3594C504.099 51.849 502.042 49.7917 500.531 47.1875C499.073 44.5833 498.344 41.6406 498.344 38.3594C498.344 34.7135 499.177 31.5365 500.844 28.8281C502.51 26.0677 504.672 23.9062 507.328 22.3438C510.036 20.7812 512.927 20.026 516 20.0781C520.583 20.0781 524.125 21.5104 526.625 24.375C529.125 27.1875 530.375 30.8594 530.375 35.3906V37.2656H507.406V33.2031H522.719L521.547 35.0781V32.4219C521.547 29.974 521 28.0208 519.906 26.5625C518.812 25.1042 517.302 24.375 515.375 24.375C514.073 24.375 512.901 24.7396 511.859 25.4688C510.818 26.1979 509.984 27.3177 509.359 28.8281C508.786 30.2865 508.5 32.1354 508.5 34.375V36.0156C508.5 39.6615 509.464 42.6042 511.391 44.8438C513.37 47.0833 516 48.2031 519.281 48.2031C521.052 48.2031 522.667 47.8906 524.125 47.2656C525.583 46.5885 526.99 45.4688 528.344 43.9062L530.766 46.0938C529.307 49.2188 527.25 51.5885 524.594 53.2031C521.938 54.8177 518.995 55.625 515.766 55.625ZM562.484 56.0156L560.375 54.8438L560.453 49.7656L560.219 49.6875C558.917 51.9271 557.458 53.5156 555.844 54.4531C554.229 55.3385 552.562 55.7812 550.844 55.7812C548.083 55.7812 545.531 55.0781 543.188 53.6719C540.844 52.2656 538.969 50.3125 537.562 47.8125C536.156 45.2604 535.453 42.3177 535.453 38.9844C535.453 36.0677 536 33.4635 537.094 31.1719C538.188 28.8281 539.646 26.849 541.469 25.2344C543.292 23.5677 545.323 22.3177 547.562 21.4844C549.802 20.599 552.094 20.1562 554.438 20.1562C555.427 20.1562 556.443 20.2604 557.484 20.4688C558.526 20.625 559.385 20.8854 560.062 21.25C560.062 20.2604 560.036 19.1667 559.984 17.9688C559.984 16.7188 559.958 15.4948 559.906 14.2969C559.906 13.0469 559.88 11.9271 559.828 10.9375C559.828 9.89583 559.802 9.11458 559.75 8.59375L553.969 7.73438L553.812 4.375L568.578 0.546875L570.766 1.875C570.609 5.10417 570.453 8.09896 570.297 10.8594C570.141 13.5677 570.062 16.4323 570.062 19.4531L569.984 37.5781C569.984 40.1302 570.062 42.2135 570.219 43.8281C570.375 45.4427 570.505 46.8229 570.609 47.9688L575.766 49.0625V52.4219L562.484 56.0156ZM554.594 48.2812C555.427 48.2812 556.365 48.0208 557.406 47.5C558.5 46.9792 559.438 46.1198 560.219 44.9219V27.5C559.49 26.5104 558.63 25.8333 557.641 25.4688C556.651 25.0521 555.661 24.8438 554.672 24.8438C552.224 24.8438 550.193 25.8594 548.578 27.8906C547.016 29.9219 546.234 32.7083 546.234 36.25C546.234 40.1042 547.042 43.0729 548.656 45.1562C550.323 47.2396 552.302 48.2812 554.594 48.2812ZM587.719 55.7812C585.688 55.7812 583.943 55.1042 582.484 53.75C581.078 52.3438 580.375 50.651 580.375 48.6719C580.375 47.3177 580.688 46.0938 581.312 45C581.99 43.9062 582.875 43.0469 583.969 42.4219C585.115 41.7448 586.339 41.4062 587.641 41.4062C589.724 41.4062 591.469 42.1094 592.875 43.5156C594.333 44.9219 595.062 46.6406 595.062 48.6719C595.062 50.651 594.333 52.3438 592.875 53.75C591.469 55.1042 589.75 55.7812 587.719 55.7812ZM39.9062 144.547C38.6042 144.391 37.1719 144.286 35.6094 144.234C34.0469 144.182 32.5625 144.13 31.1562 144.078C29.75 144.026 28.6042 144 27.7188 144H4.04688L3.8125 140.094L8.8125 138.844C8.91667 138.583 8.99479 137.88 9.04688 136.734C9.09896 135.536 9.15104 134.078 9.20312 132.359C9.25521 130.589 9.28125 128.74 9.28125 126.812V115.328C9.28125 113.297 9.25521 111.422 9.20312 109.703C9.15104 107.984 9.09896 106.552 9.04688 105.406C8.99479 104.26 8.91667 103.557 8.8125 103.297L3.8125 102.047L4.04688 98.1406H26.625L26.8594 102.203L20.375 103.375C20.3229 103.531 20.2448 104.156 20.1406 105.25C20.0365 106.344 19.9583 107.776 19.9062 109.547C19.8542 111.266 19.8281 113.193 19.8281 115.328V126.812C19.8281 129.885 19.8542 132.333 19.9062 134.156C19.9583 135.979 20.0365 137.229 20.1406 137.906C21.026 138.062 21.9375 138.167 22.875 138.219C23.8646 138.271 25.0365 138.297 26.3906 138.297H29.2812C30.4271 138.297 31.4427 138.245 32.3281 138.141C33.2135 138.036 33.9427 137.932 34.5156 137.828L38.8906 129.312L43.7344 130.562L39.9062 144.547ZM64.2031 144.625C60.8177 144.625 57.7969 143.87 55.1406 142.359C52.5365 140.849 50.4792 138.792 48.9688 136.188C47.5104 133.583 46.7812 130.641 46.7812 127.359C46.7812 123.714 47.6146 120.536 49.2812 117.828C50.9479 115.068 53.1094 112.906 55.7656 111.344C58.474 109.781 61.3646 109.026 64.4375 109.078C69.0208 109.078 72.5625 110.51 75.0625 113.375C77.5625 116.188 78.8125 119.859 78.8125 124.391V126.266H55.8438V122.203H71.1562L69.9844 124.078V121.422C69.9844 118.974 69.4375 117.021 68.3438 115.562C67.25 114.104 65.7396 113.375 63.8125 113.375C62.5104 113.375 61.3385 113.74 60.2969 114.469C59.2552 115.198 58.4219 116.318 57.7969 117.828C57.224 119.286 56.9375 121.135 56.9375 123.375V125.016C56.9375 128.661 57.901 131.604 59.8281 133.844C61.8073 136.083 64.4375 137.203 67.7188 137.203C69.4896 137.203 71.1042 136.891 72.5625 136.266C74.0208 135.589 75.4271 134.469 76.7812 132.906L79.2031 135.094C77.7448 138.219 75.6875 140.589 73.0312 142.203C70.375 143.818 67.4323 144.625 64.2031 144.625ZM110.375 137.438C109.594 139.677 108.161 141.474 106.078 142.828C104.047 144.13 101.755 144.781 99.2031 144.781C95.6094 144.781 92.6406 143.74 90.2969 141.656C88.0052 139.521 86.8594 136.344 86.8594 132.125L87.0938 114.703H81.625V112.281L94.9844 101.656H97.4062L97.25 112.672L97.0938 131.188C97.0938 133.375 97.6146 134.964 98.6562 135.953C99.6979 136.891 101.156 137.359 103.031 137.359C104.021 137.359 104.984 137.177 105.922 136.812C106.859 136.396 107.667 135.875 108.344 135.25L110.375 137.438ZM93.2656 114.703V109.781H108.188V114.703H93.2656ZM114.203 119.469L112.719 116.266C115.74 114.964 117.875 113.557 119.125 112.047C120.375 110.536 121 108.896 121 107.125C121 106.031 120.766 105.146 120.297 104.469C119.88 103.74 119.333 103.115 118.656 102.594C117.979 102.021 117.302 101.474 116.625 100.953C115.948 100.38 115.375 99.7031 114.906 98.9219C114.49 98.1406 114.281 97.125 114.281 95.875C114.281 94.1042 114.958 92.5938 116.312 91.3438C117.667 90.0938 119.359 89.4688 121.391 89.4688C122.641 89.4688 123.891 89.8073 125.141 90.4844C126.391 91.1615 127.406 92.2292 128.188 93.6875C128.969 95.1458 129.359 97.125 129.359 99.625C129.359 102.438 128.786 105.094 127.641 107.594C126.547 110.094 124.88 112.359 122.641 114.391C120.453 116.422 117.641 118.115 114.203 119.469ZM147.953 144.625C145.766 144.625 143.604 144.391 141.469 143.922C139.333 143.401 137.536 142.75 136.078 141.969L135.688 132.828H140.688L142.328 138.453C144.307 139.599 146.365 140.172 148.5 140.172C150.115 140.172 151.339 139.859 152.172 139.234C153.005 138.557 153.422 137.672 153.422 136.578C153.422 135.432 152.953 134.443 152.016 133.609C151.13 132.776 149.281 131.839 146.469 130.797C142.615 129.391 139.932 127.854 138.422 126.188C136.911 124.521 136.156 122.438 136.156 119.938C136.156 117.802 136.807 115.927 138.109 114.312C139.411 112.646 141.234 111.37 143.578 110.484C145.922 109.547 148.63 109.078 151.703 109.078C153.37 109.078 155.062 109.234 156.781 109.547C158.5 109.859 159.906 110.276 161 110.797L161.938 119.859H156.938L155.219 114.312C154.698 114 154.047 113.766 153.266 113.609C152.536 113.401 151.833 113.297 151.156 113.297C149.594 113.297 148.318 113.635 147.328 114.312C146.391 114.99 145.922 115.901 145.922 117.047C145.922 118.297 146.495 119.339 147.641 120.172C148.786 121.005 150.87 122.047 153.891 123.297C157.328 124.703 159.776 126.214 161.234 127.828C162.693 129.391 163.422 131.344 163.422 133.688C163.422 136.969 161.99 139.625 159.125 141.656C156.26 143.635 152.536 144.625 147.953 144.625ZM199.594 161.812C194.073 161.812 189.75 161.057 186.625 159.547C183.552 158.036 182.016 155.953 182.016 153.297C182.016 151.578 182.927 149.964 184.75 148.453C186.625 146.995 189.151 145.823 192.328 144.938L195.688 145.25C194.438 146.135 193.448 147.151 192.719 148.297C191.99 149.443 191.625 150.641 191.625 151.891C191.625 153.661 192.354 155.016 193.812 155.953C195.323 156.943 197.51 157.438 200.375 157.438C203.188 157.438 205.531 156.812 207.406 155.562C209.281 154.365 210.219 152.854 210.219 151.031C210.219 149.729 209.75 148.74 208.812 148.062C207.875 147.438 206.26 147.021 203.969 146.812L194.047 145.953L193.344 145.562C190.688 145.562 188.63 145.042 187.172 144C185.714 143.01 184.984 141.708 184.984 140.094C184.984 138.427 185.792 136.891 187.406 135.484C189.073 134.026 191.339 132.88 194.203 132.047L195.453 133.375C194.88 133.74 194.411 134.156 194.047 134.625C193.682 135.042 193.5 135.458 193.5 135.875C193.5 136.5 193.682 136.969 194.047 137.281C194.464 137.594 195.036 137.802 195.766 137.906L207.875 139.078C211.729 139.443 214.594 140.458 216.469 142.125C218.344 143.792 219.281 145.979 219.281 148.688C219.281 151.135 218.422 153.349 216.703 155.328C215.036 157.307 212.693 158.87 209.672 160.016C206.703 161.214 203.344 161.812 199.594 161.812ZM199.906 134.781C196.781 134.781 194.021 134.26 191.625 133.219C189.281 132.125 187.458 130.641 186.156 128.766C184.854 126.839 184.203 124.625 184.203 122.125C184.203 119.573 184.906 117.307 186.312 115.328C187.719 113.349 189.62 111.786 192.016 110.641C194.464 109.495 197.198 108.922 200.219 108.922C203.188 108.922 205.818 109.521 208.109 110.719C210.453 111.865 212.302 113.427 213.656 115.406C215.01 117.385 215.688 119.625 215.688 122.125C215.688 124.573 215.01 126.76 213.656 128.688C212.302 130.562 210.453 132.047 208.109 133.141C205.766 134.234 203.031 134.781 199.906 134.781ZM200.531 130.25C202.146 130.25 203.422 129.547 204.359 128.141C205.297 126.682 205.766 124.729 205.766 122.281C205.766 119.625 205.245 117.49 204.203 115.875C203.214 114.26 201.859 113.453 200.141 113.453C198.578 113.453 197.302 114.208 196.312 115.719C195.323 117.229 194.828 119.234 194.828 121.734C194.828 124.286 195.349 126.344 196.391 127.906C197.432 129.469 198.812 130.25 200.531 130.25ZM219.984 116.109L209.438 115.094L207.094 111.422L219.984 109.859V116.109ZM240.766 144.625C237.38 144.625 234.359 143.87 231.703 142.359C229.099 140.849 227.042 138.792 225.531 136.188C224.073 133.583 223.344 130.641 223.344 127.359C223.344 123.714 224.177 120.536 225.844 117.828C227.51 115.068 229.672 112.906 232.328 111.344C235.036 109.781 237.927 109.026 241 109.078C245.583 109.078 249.125 110.51 251.625 113.375C254.125 116.188 255.375 119.859 255.375 124.391V126.266H232.406V122.203H247.719L246.547 124.078V121.422C246.547 118.974 246 117.021 244.906 115.562C243.812 114.104 242.302 113.375 240.375 113.375C239.073 113.375 237.901 113.74 236.859 114.469C235.818 115.198 234.984 116.318 234.359 117.828C233.786 119.286 233.5 121.135 233.5 123.375V125.016C233.5 128.661 234.464 131.604 236.391 133.844C238.37 136.083 241 137.203 244.281 137.203C246.052 137.203 247.667 136.891 249.125 136.266C250.583 135.589 251.99 134.469 253.344 132.906L255.766 135.094C254.307 138.219 252.25 140.589 249.594 142.203C246.938 143.818 243.995 144.625 240.766 144.625ZM286.938 137.438C286.156 139.677 284.724 141.474 282.641 142.828C280.609 144.13 278.318 144.781 275.766 144.781C272.172 144.781 269.203 143.74 266.859 141.656C264.568 139.521 263.422 136.344 263.422 132.125L263.656 114.703H258.188V112.281L271.547 101.656H273.969L273.812 112.672L273.656 131.188C273.656 133.375 274.177 134.964 275.219 135.953C276.26 136.891 277.719 137.359 279.594 137.359C280.583 137.359 281.547 137.177 282.484 136.812C283.422 136.396 284.229 135.875 284.906 135.25L286.938 137.438ZM269.828 114.703V109.781H284.75V114.703H269.828ZM346.703 97.75L348.5 111.578L343.734 111.969L340.609 102.984C340.089 102.88 339.516 102.828 338.891 102.828C338.318 102.776 337.693 102.75 337.016 102.75H334.438C333.969 102.75 333.422 102.75 332.797 102.75C332.224 102.75 331.781 102.802 331.469 102.906C331.469 103.219 331.443 104.182 331.391 105.797C331.339 107.411 331.286 109.339 331.234 111.578C331.234 113.766 331.234 116.031 331.234 118.375V125.641C331.234 128.557 331.26 131.214 331.312 133.609C331.417 135.953 331.495 137.698 331.547 138.844L338.344 139.938L338.109 144H313.812L313.578 139.938L320.375 138.844C320.427 137.698 320.479 135.953 320.531 133.609C320.583 131.214 320.609 128.557 320.609 125.641V118.375C320.609 116.031 320.583 113.766 320.531 111.578C320.531 109.339 320.531 107.411 320.531 105.797C320.531 104.182 320.505 103.219 320.453 102.906C320.141 102.802 319.672 102.75 319.047 102.75C318.474 102.75 317.953 102.75 317.484 102.75H314.75C314.073 102.75 313.422 102.776 312.797 102.828C312.172 102.828 311.573 102.88 311 102.984L308.109 112.125L303.266 111.656L304.906 97.75C305.427 97.75 306.156 97.776 307.094 97.8281C308.031 97.8802 309.047 97.9323 310.141 97.9844C311.234 98.0365 312.276 98.0885 313.266 98.1406C314.307 98.1406 315.167 98.1406 315.844 98.1406H335.766C336.443 98.1406 337.276 98.1406 338.266 98.1406C339.307 98.0885 340.375 98.0365 341.469 97.9844C342.562 97.9323 343.552 97.8802 344.438 97.8281C345.375 97.776 346.13 97.75 346.703 97.75ZM367.797 144.625C364.151 144.625 360.948 143.896 358.188 142.438C355.427 140.927 353.266 138.87 351.703 136.266C350.141 133.609 349.359 130.589 349.359 127.203C349.359 123.349 350.245 120.068 352.016 117.359C353.786 114.651 356.104 112.594 358.969 111.188C361.833 109.781 364.88 109.078 368.109 109.078C371.547 109.078 374.568 109.807 377.172 111.266C379.828 112.724 381.885 114.781 383.344 117.438C384.854 120.042 385.609 123.036 385.609 126.422C385.609 129.859 384.802 132.958 383.188 135.719C381.625 138.427 379.49 140.589 376.781 142.203C374.073 143.818 371.078 144.625 367.797 144.625ZM368.578 139.625C369.88 139.625 370.974 139.208 371.859 138.375C372.797 137.542 373.5 136.318 373.969 134.703C374.49 133.089 374.75 131.161 374.75 128.922C374.75 124.443 374.021 120.797 372.562 117.984C371.156 115.172 369.255 113.766 366.859 113.766C364.88 113.766 363.318 114.781 362.172 116.812C361.026 118.792 360.453 121.5 360.453 124.938C360.453 127.698 360.792 130.198 361.469 132.438C362.198 134.677 363.161 136.448 364.359 137.75C365.609 139 367.016 139.625 368.578 139.625ZM427.328 112.672L413.969 144.234H409.828L392.25 103.297L388.266 102.047L388.5 98.1406H408.109L408.344 102.047L404.438 103.297L416.781 133.688H413.031L423.969 105.797L427.328 112.672ZM438.812 144.234L421 103.297L417.094 102.047L417.328 98.1406H437.562L437.797 102.047L432.875 103.297L445.453 133.688H442.172L453.578 103.297L448.266 102.047L448.5 98.1406H464.438L464.672 102.047L460.688 103.297L442.953 144.234H438.812ZM481.625 144.625C477.979 144.625 474.776 143.896 472.016 142.438C469.255 140.927 467.094 138.87 465.531 136.266C463.969 133.609 463.188 130.589 463.188 127.203C463.188 123.349 464.073 120.068 465.844 117.359C467.615 114.651 469.932 112.594 472.797 111.188C475.661 109.781 478.708 109.078 481.938 109.078C485.375 109.078 488.396 109.807 491 111.266C493.656 112.724 495.714 114.781 497.172 117.438C498.682 120.042 499.438 123.036 499.438 126.422C499.438 129.859 498.63 132.958 497.016 135.719C495.453 138.427 493.318 140.589 490.609 142.203C487.901 143.818 484.906 144.625 481.625 144.625ZM482.406 139.625C483.708 139.625 484.802 139.208 485.688 138.375C486.625 137.542 487.328 136.318 487.797 134.703C488.318 133.089 488.578 131.161 488.578 128.922C488.578 124.443 487.849 120.797 486.391 117.984C484.984 115.172 483.083 113.766 480.688 113.766C478.708 113.766 477.146 114.781 476 116.812C474.854 118.792 474.281 121.5 474.281 124.938C474.281 127.698 474.62 130.198 475.297 132.438C476.026 134.677 476.99 136.448 478.188 137.75C479.438 139 480.844 139.625 482.406 139.625ZM503.734 144L503.5 140.406L508.344 139.078C508.396 138.87 508.448 138.401 508.5 137.672C508.552 136.891 508.604 135.953 508.656 134.859C508.708 133.714 508.734 132.516 508.734 131.266L508.812 125.406C508.812 123.844 508.76 122.464 508.656 121.266C508.552 120.016 508.37 118.714 508.109 117.359L503.109 116.266V112.75L516.625 109.234L518.656 110.562L518.344 116.734L518.578 116.812C520.089 113.896 521.599 111.917 523.109 110.875C524.672 109.833 526.26 109.312 527.875 109.312C529.281 109.312 530.505 109.703 531.547 110.484C532.641 111.266 533.188 112.49 533.188 114.156C533.188 115.823 532.615 117.125 531.469 118.062C530.323 119 528.995 119.469 527.484 119.469C526.234 119.469 525.115 119.26 524.125 118.844C523.135 118.375 522.042 117.568 520.844 116.422L523.031 116.656C522.25 117.229 521.495 117.958 520.766 118.844C520.036 119.729 519.411 120.745 518.891 121.891L518.969 128.062C519.021 129.99 519.047 131.734 519.047 133.297C519.099 134.807 519.151 136.083 519.203 137.125C519.255 138.115 519.307 138.766 519.359 139.078L526.156 140.25L525.922 144H503.734ZM535.141 144L534.906 140.406L539.359 139.078C539.464 138.401 539.542 137.333 539.594 135.875C539.646 134.417 539.698 132.802 539.75 131.031C539.802 129.208 539.828 127.464 539.828 125.797V115.797C539.828 113.922 539.802 112.099 539.75 110.328C539.75 108.505 539.724 106.786 539.672 105.172C539.672 103.505 539.646 102.021 539.594 100.719C539.542 99.4167 539.49 98.349 539.438 97.5156L533.656 96.7344L533.5 93.375L548.266 89.5469L550.453 90.875C550.349 92.3333 550.245 93.7917 550.141 95.25C550.089 96.7083 550.036 98.2969 549.984 100.016C549.984 101.682 549.958 103.635 549.906 105.875C549.906 108.062 549.906 110.693 549.906 113.766L549.828 131.422C549.828 132.568 549.854 133.688 549.906 134.781C549.958 135.823 549.984 136.734 549.984 137.516C550.036 138.245 550.089 138.766 550.141 139.078L554.984 140.406L554.75 144H535.141ZM577.094 144H563.969C563.188 142.906 562.458 141.969 561.781 141.188C561.156 140.354 560.505 139.547 559.828 138.766L550.766 128.531H548.812L548.891 125.641L551.234 125.094L562.719 114.234L557.562 113.375L557.797 109.703H575.141L575.375 113.375L570.219 114.312L557.25 125.094L558.109 121.578L570.062 135.172C571.052 136.318 571.911 137.281 572.641 138.062C573.422 138.844 573.995 139.417 574.359 139.781L577.328 140.406L577.094 144ZM588.266 144.781C586.234 144.781 584.49 144.104 583.031 142.75C581.625 141.344 580.922 139.651 580.922 137.672C580.922 136.318 581.234 135.094 581.859 134C582.536 132.906 583.422 132.047 584.516 131.422C585.661 130.745 586.885 130.406 588.188 130.406C590.271 130.406 592.016 131.109 593.422 132.516C594.88 133.922 595.609 135.641 595.609 137.672C595.609 139.651 594.88 141.344 593.422 142.75C592.016 144.104 590.297 144.781 588.266 144.781Z" fill="white"/>
</svg>
